# xmcd
#
# Track frame offsets: 
#        150
#        10376
#        21062
#        33671
#        44281
#        56435
#        66652
#        71872
#        80520
#        85053
#        95643
#        107163
#        119262
#        133260
#        140712
#        149805
#        158394
#        165797
#
# Disc length: 2302 seconds
#
# Revision: 0
# Processed by: cddbd v1.5.2PL0 Copyright (c) Steve Scherf et al.
# Submitted via: ExactAudioCopy v0.99pb5
#
DISCID=0308fc12
DTITLE=K.V.N and Lobo - The Dead End Kidz
DYEAR=2008
DGENRE=Hip-Hop
TTITLE0=The Dead End Kidz
TTITLE1=Rough and Rugged
TTITLE2=Bright Boy
TTITLE3=Kill the Sweet
TTITLE4=Rawww!
TTITLE5=Street Kidz
TTITLE6=Crying
TTITLE7=Indian Cousine
TTITLE8=Sig Sour
TTITLE9=The Rumbling Bass
TTITLE10=Dead Man, Dead End
TTITLE11=Shootezka!
TTITLE12=Blind Spot
TTITLE13=Your Brainz Out
TTITLE14=Slum Life
TTITLE15=Tasty
TTITLE16=Yesterday's News
TTITLE17=The (Dead) End
EXTD=
EXTT0=
EXTT1=
EXTT2=
EXTT3=
EXTT4=
EXTT5=
EXTT6=
EXTT7=
EXTT8=
EXTT9=
EXTT10=
EXTT11=
EXTT12=
EXTT13=
EXTT14=
EXTT15=
EXTT16=
EXTT17=
PLAYORDER=
